<svg width="22" height="30" viewBox="0 0 22 30" fill="none" xmlns="http://www.w3.org/2000/svg">
<path d="M6.68994 20.4276C6.68994 23.208 9.08981 24.1584 10.7252 24.1584C12.7971 24.1584 13.7078 23.7722 15.2701 22.1524L19.9236 24.4051C17.814 27.8205 14.397 29.1206 10.2532 29.1206C4.61803 29.1206 0 24.8256 0 19.5823C0 14.3025 4.61803 10.0074 10.2532 10.0074C15.926 10.0074 20.2515 13.2448 20.2515 19.5823C20.2515 19.829 20.2515 20.2152 20.2161 20.4276H6.68994ZM13.9605 16.9778C13.6702 15.077 12.3251 14.0558 10.4327 14.0558C8.21451 14.0558 6.97801 15.3237 6.86943 16.9778H13.9605Z" fill="#282828"/>
<path d="M22 8.33871H0V0H18.5652C20.4627 0 22 1.50282 22 3.3578V8.33871Z" fill="#EFB443"/>
</svg>
