<svg width="223" height="73" viewBox="0 0 223 73" fill="none" xmlns="http://www.w3.org/2000/svg">
<path d="M167.951 43.4246C167.951 46.9664 171.026 48.1771 173.121 48.1771C175.776 48.1771 176.94 47.6852 178.944 45.6218L184.907 48.4914C182.204 52.8421 177.826 54.4983 172.516 54.4983C165.296 54.4983 159.38 49.027 159.38 42.3478C159.38 35.6221 165.296 30.1509 172.516 30.1509C179.785 30.1509 185.327 34.2748 185.327 42.3478C185.327 42.6621 185.327 43.154 185.281 43.4246H167.951ZM177.266 39.0301C176.894 36.6087 175.171 35.3079 172.746 35.3079C169.904 35.3079 168.32 36.923 168.181 39.0301H177.266Z" fill="#282828"/>
<path d="M59.492 54.4999C55.0969 54.4999 51.511 52.6196 48.7371 48.8537C47.9109 47.7332 47.3459 46.4433 47.1018 45.0878C46.1109 39.5782 47.9762 35.2083 52.7035 31.9781C53.8732 31.1773 55.2247 30.6417 56.6358 30.4012C61.3403 29.6032 65.2726 30.71 68.4354 33.7162C70.9055 36.0938 72.1377 38.9633 72.1377 42.9233V54.4971C72.1377 54.4999 60.9967 54.4999 59.492 54.4999ZM59.492 36.6759C58.6857 36.6759 57.9333 36.8235 57.2348 37.1159C56.5364 37.4111 55.9316 37.8073 55.4206 38.3047C54.9067 38.8021 54.5007 39.3897 54.2026 40.0592C53.9016 40.7315 53.754 41.4448 53.754 42.1991C53.754 42.9534 53.9045 43.6694 54.2026 44.339C54.5035 45.0112 54.9095 45.5961 55.4206 46.0935C55.9316 46.5909 56.5392 46.9871 57.2348 47.2823C57.9333 47.5774 58.6857 47.7223 59.492 47.7223C60.287 47.7223 61.0337 47.5747 61.7321 47.2823C62.4305 46.9899 63.0381 46.5909 63.5549 46.0853C64.0716 45.5824 64.4804 44.9976 64.7814 44.3308C65.0823 43.6639 65.23 42.9534 65.23 42.1991C65.23 41.4448 65.0795 40.7315 64.7814 40.0674C64.4804 39.4006 64.0716 38.8158 63.5549 38.3129C63.0381 37.8101 62.4277 37.4111 61.7321 37.1159C61.0337 36.8235 60.287 36.6759 59.492 36.6759Z" fill="#282828"/>
<path d="M95.4793 31.9459L92.7764 37.1466C92.7764 37.1466 89.9827 35.7118 87.4672 35.7118C85.6501 35.7118 84.9062 36.0261 84.9062 37.1028C84.9062 38.3135 86.5842 38.6715 88.6341 39.3001C91.8026 40.2429 95.9024 41.9455 95.9024 46.6543C95.9024 53.4237 89.4745 54.5005 84.5825 54.5005C78.8076 54.5005 75.358 51.4068 75.358 51.4068L78.7111 45.982C78.7111 45.982 81.9705 48.6275 84.628 48.6275C85.792 48.6275 87.1889 48.4935 87.1889 46.9686C87.1889 45.3097 84.5797 45.1758 81.8796 43.8285C79.4578 42.6178 77.036 41.0054 77.036 37.551C77.036 32.8422 81.1812 30.1531 87.47 30.1531C92.078 30.1531 95.4793 31.9459 95.4793 31.9459Z" fill="#282828"/>
<path d="M127.618 30.8254L108.845 65.4841H99.3422L107.587 50.24L96.2673 30.8254H105.77L112.431 42.6179L118.112 30.8254H127.618Z" fill="#282828"/>
<path d="M135.159 56.2932C136.044 57.6843 138.046 59.253 141.632 59.253C143.915 59.253 147.455 57.9521 147.455 53.8719V52.1693C145.686 54.0523 142.89 54.5005 139.63 54.5005C132.643 54.5005 127.751 49.0757 127.751 42.35C127.751 35.6243 132.643 30.1531 139.63 30.1531C142.799 30.1531 145.36 31.1397 147.316 32.8887H147.455V30.8254H155.7V54.454C155.7 62.1662 149.783 66.1563 141.632 66.1563C136.649 66.1563 130.917 65.0795 128.404 59.4743L135.159 56.2932ZM142.1 47.7283C145.314 47.7283 147.643 45.4874 147.643 42.3473C147.643 39.1634 145.175 36.9225 142.1 36.9225C138.98 36.9225 136.51 39.1634 136.51 42.3473C136.51 45.4874 138.747 47.7283 142.1 47.7283Z" fill="#282828"/>
<path d="M26.9631 43.4246C26.9631 46.9664 30.0379 48.1771 32.1333 48.1771C34.7879 48.1771 35.9548 47.6852 37.9564 45.6218L43.9187 48.4914C41.2158 52.8421 36.8378 54.4983 31.5285 54.4983C24.3085 54.4983 18.3916 49.027 18.3916 42.3478C18.3916 35.6221 24.3085 30.1509 31.5285 30.1509C38.7968 30.1509 44.3389 34.2748 44.3389 42.3478C44.3389 42.6621 44.3389 43.154 44.2935 43.4246H26.9631ZM36.2785 39.0301C35.9065 36.6087 34.1832 35.3079 31.7585 35.3079C28.9165 35.3079 27.3322 36.923 27.1931 39.0301H36.2785Z" fill="#282828"/>
<path d="M190.401 22.2598H198.646V30.8247H203.677V36.878H198.646V44.1858C198.646 46.3393 199.205 47.3696 200.508 47.3696C201.579 47.3696 202.558 46.6509 202.558 46.6509L204.608 53.0623C204.608 53.0623 201.953 54.497 198.552 54.497C191.985 54.497 190.401 49.7882 190.401 45.708V36.8753H186.954V30.8219H190.401V22.2598Z" fill="#282828"/>
<path d="M198.645 19.9152H163.621V6.84375H193.177C196.198 6.84375 198.645 9.19951 198.645 12.1073V19.9152Z" fill="#EFB443"/>
</svg>
