<svg xmlns="http://www.w3.org/2000/svg" width="169" height="36"><path d="M21.935 0v28.567h-.084L5.336 0H0v35h4.065V6.185h.085L20.834 35H26V0zM53 25.157H35.437c0 2.008.755 3.681 2.265 5.02 1.417 1.272 3.127 1.908 5.13 1.908 2.218 0 4.221-1.287 6.008-3.664h3.988C52.046 34.755 46.438 36 42.278 36c-3.39 0-6.132-1.204-8.228-3.614C32.017 30.077 31 27.115 31 23.5c0-3.58 1.063-6.56 3.19-8.936C36.345 12.188 39.056 11 42.323 11c3.574 0 6.316 1.322 8.227 3.966C52.183 17.242 53 20.103 53 23.55v1.606zm-17.563-3.614h13.126c-.062-2.075-.6-3.732-1.617-4.97-1.11-1.305-2.681-1.958-4.715-1.958-1.94 0-3.59.753-4.945 2.259-1.233 1.406-1.85 2.962-1.85 4.669zM67.87 11.66v3.907h-5.539v10.767c0 1.804.13 3.04.387 3.707.4 1.169 1.245 1.753 2.533 1.753 1.174 0 2.09-.234 2.749-.701v4.106c-.802.534-1.961.801-3.48.801-2.632 0-4.393-.867-5.281-2.603-.515-1.069-.773-2.888-.773-5.459V15.567H54V11.66h4.466V5h3.865v6.66h5.54zM78.625 35L70 0h4.167l6.5 27.781h.082L87.71 0h4.583l6.958 27.781h.083L105.833 0H110l-8.584 35h-4.208L90.042 6.381h-.084L82.833 35zm34.565-11.5c0 2.443.611 4.435 1.834 5.974 1.251 1.54 2.91 2.31 4.976 2.31s3.71-.77 4.932-2.31c1.252-1.54 1.877-3.53 1.877-5.974 0-2.443-.625-4.434-1.877-5.973-1.222-1.54-2.866-2.31-4.932-2.31-2.066 0-3.725.77-4.976 2.31-1.223 1.539-1.834 3.53-1.834 5.973m-4.19 0c0-3.48 1.062-6.425 3.187-8.835C114.31 12.222 116.915 11 120 11s5.689 1.222 7.813 3.665C129.937 17.075 131 20.02 131 23.5c0 3.48-1.063 6.443-3.187 8.886C125.69 34.796 123.085 36 120 36s-5.69-1.204-7.813-3.614C110.062 29.943 109 26.981 109 23.5M135 35V11.586h3.8v3.569h.085c.479-1.206 1.639-2.2 2.765-2.982 1.126-.782 3.393-1.173 4.66-1.173.62 0 1.183.098 1.69.293v3.723c-.732-.228-1.52-.342-2.027-.342-3.83 0-7.172 2.137-7.172 7.09V35H135zm16 0V0h3.699v21.597l8.383-10.062h5.137l-9.082 10.552L169 35h-5.26l-9.041-12.323V35z" fill="#1D1D1B" fill-rule="evenodd"/></svg>