<svg width="25" height="30" viewBox="0 0 25 30" fill="none" xmlns="http://www.w3.org/2000/svg">
<path d="M20.1708 15.9784C20.1853 14.8428 20.4853 13.7292 21.0428 12.7415C21.6003 11.7537 22.3973 10.9238 23.3595 10.3289C22.7482 9.45107 21.9418 8.72864 21.0044 8.21901C20.0669 7.70937 19.0242 7.42657 17.959 7.39305C15.6868 7.15322 13.484 8.76028 12.3261 8.76028C11.1459 8.76028 9.36315 7.41686 7.44346 7.45658C6.20175 7.49692 4.9916 7.86002 3.93093 8.51049C2.87026 9.16097 1.99524 10.0766 1.39112 11.1683C-1.22579 15.7243 0.72619 22.4202 3.23297 26.103C4.48716 27.9063 5.95296 29.9207 7.87092 29.8493C9.74776 29.771 10.4487 28.6458 12.7142 28.6458C14.9587 28.6458 15.6164 29.8493 17.5732 29.8038C19.5872 29.771 20.856 27.9925 22.0662 26.1721C22.9674 24.8871 23.6608 23.4669 24.1208 21.9642C22.9508 21.4666 21.9523 20.6336 21.2499 19.5692C20.5474 18.5047 20.1721 17.2559 20.1708 15.9784Z" fill="#282828"/>
<path d="M16.474 4.9717C17.5721 3.64614 18.1131 1.94235 17.9821 0.222168C16.3044 0.399353 14.7548 1.20562 13.6419 2.48033C13.0977 3.10305 12.681 3.82752 12.4154 4.6123C12.1499 5.39709 12.0408 6.22681 12.0943 7.05403C12.9334 7.06272 13.7635 6.87983 14.5222 6.51913C15.2808 6.15844 15.9482 5.62935 16.474 4.9717Z" fill="#282828"/>
</svg>
