<svg width="242" height="113" viewBox="0 0 242 113" fill="none" xmlns="http://www.w3.org/2000/svg">
<path d="M172.951 43.4246C172.951 46.9664 176.026 48.1771 178.122 48.1771C180.776 48.1771 181.94 47.6852 183.945 45.6218L189.907 48.4914C187.204 52.8421 182.826 54.4983 177.517 54.4983C170.297 54.4983 164.38 49.027 164.38 42.3478C164.38 35.6221 170.297 30.1509 177.517 30.1509C184.785 30.1509 190.327 34.2748 190.327 42.3478C190.327 42.6621 190.327 43.154 190.282 43.4246H172.951V43.4246ZM182.267 39.0301C181.895 36.6087 180.171 35.3079 177.747 35.3079C174.905 35.3079 173.32 36.923 173.181 39.0301H182.267Z" fill="#282828"/>
<path d="M64.4917 54.4999C60.0967 54.4999 56.5108 52.6196 53.7369 48.8537C52.9107 47.7332 52.3457 46.4433 52.1015 45.0878C51.1107 39.5782 52.976 35.2083 57.7032 31.9781C58.873 31.1773 60.2244 30.6417 61.6355 30.4012C66.34 29.6032 70.2723 30.71 73.4352 33.7162C75.9053 36.0938 77.1375 38.9633 77.1375 42.9233V54.4971C77.1375 54.4999 65.9965 54.4999 64.4917 54.4999V54.4999ZM64.4917 36.6759C63.6854 36.6759 62.933 36.8235 62.2346 37.1159C61.5361 37.4111 60.9314 37.8073 60.4203 38.3047C59.9065 38.8021 59.5004 39.3897 59.2023 40.0592C58.9014 40.7315 58.7537 41.4448 58.7537 42.1991C58.7537 42.9534 58.9042 43.6694 59.2023 44.339C59.5033 45.0112 59.9093 45.5961 60.4203 46.0935C60.9314 46.5909 61.539 46.9871 62.2346 47.2823C62.933 47.5774 63.6854 47.7223 64.4917 47.7223C65.2867 47.7223 66.0334 47.5747 66.7319 47.2823C67.4303 46.9899 68.0379 46.5909 68.5546 46.0853C69.0713 45.5824 69.4802 44.9976 69.7811 44.3308C70.0821 43.6639 70.2297 42.9534 70.2297 42.1991C70.2297 41.4448 70.0793 40.7315 69.7811 40.0674C69.4802 39.4006 69.0713 38.8158 68.5546 38.3129C68.0379 37.8101 67.4275 37.4111 66.7319 37.1159C66.0334 36.8235 65.2867 36.6759 64.4917 36.6759Z" fill="#282828"/>
<path d="M100.48 31.9459L97.7768 37.1466C97.7768 37.1466 94.983 35.7118 92.4675 35.7118C90.6504 35.7118 89.9066 36.0261 89.9066 37.1028C89.9066 38.3135 91.5845 38.6715 93.6344 39.3001C96.803 40.2429 100.903 41.9455 100.903 46.6543C100.903 53.4237 94.4748 54.5005 89.5829 54.5005C83.808 54.5005 80.3584 51.4068 80.3584 51.4068L83.7115 45.982C83.7115 45.982 86.9709 48.6275 89.6283 48.6275C90.7924 48.6275 92.1893 48.4935 92.1893 46.9686C92.1893 45.3097 89.5801 45.1758 86.88 43.8285C84.4582 42.6178 82.0364 41.0054 82.0364 37.551C82.0364 32.8422 86.1816 30.1531 92.4704 30.1531C97.0784 30.1531 100.48 31.9459 100.48 31.9459V31.9459Z" fill="#282828"/>
<path d="M132.618 30.8254L113.845 65.4841H104.342L112.587 50.24L101.268 30.8254H110.77L117.431 42.6179L123.112 30.8254H132.618V30.8254Z" fill="#282828"/>
<path d="M140.158 56.2932C141.044 57.6843 143.046 59.253 146.632 59.253C148.914 59.253 152.455 57.9521 152.455 53.8719V52.1693C150.686 54.0523 147.89 54.5005 144.63 54.5005C137.643 54.5005 132.751 49.0757 132.751 42.35C132.751 35.6243 137.643 30.1531 144.63 30.1531C147.799 30.1531 150.36 31.1397 152.316 32.8887H152.455V30.8254H160.7V54.454C160.7 62.1662 154.783 66.1563 146.632 66.1563C141.649 66.1563 135.917 65.0795 133.404 59.4743L140.158 56.2932V56.2932ZM147.1 47.7283C150.314 47.7283 152.642 45.4874 152.642 42.3473C152.642 39.1634 150.175 36.9225 147.1 36.9225C143.98 36.9225 141.51 39.1634 141.51 42.3473C141.51 45.4874 143.747 47.7283 147.1 47.7283Z" fill="#282828"/>
<path d="M31.9631 43.4246C31.9631 46.9664 35.0379 48.1771 37.1333 48.1771C39.7879 48.1771 40.9548 47.6852 42.9564 45.6218L48.9187 48.4914C46.2158 52.8421 41.8378 54.4983 36.5285 54.4983C29.3085 54.4983 23.3916 49.027 23.3916 42.3478C23.3916 35.6221 29.3085 30.1509 36.5285 30.1509C43.7968 30.1509 49.3389 34.2748 49.3389 42.3478C49.3389 42.6621 49.3389 43.154 49.2935 43.4246H31.9631ZM41.2785 39.0301C40.9065 36.6087 39.1832 35.3079 36.7585 35.3079C33.9165 35.3079 32.3322 36.923 32.1931 39.0301H41.2785Z" fill="#282828"/>
<path d="M195.401 22.2598H203.646V30.8247H208.677V36.878H203.646V44.1858C203.646 46.3393 204.205 47.3696 205.508 47.3696C206.579 47.3696 207.558 46.6509 207.558 46.6509L209.608 53.0622C209.608 53.0622 206.953 54.497 203.552 54.497C196.985 54.497 195.401 49.7882 195.401 45.708V36.8753H191.954V30.8219H195.401V22.2598V22.2598Z" fill="#282828"/>
<path d="M203.645 19.9152H168.621V6.84375H198.177C201.198 6.84375 203.645 9.19951 203.645 12.1073V19.9152V19.9152Z" fill="#EFB443"/>
<rect x="0.317383" y="73.7559" width="238.865" height="39.0431" rx="4" transform="rotate(-4.41394 0.317383 73.7559)" fill="#ECEF43"/>
<path d="M45.9273 89.0462L45.6474 85.4205L48.8389 85.1741C49.1429 85.1507 49.4346 85.1573 49.7141 85.1939C50.0069 85.215 50.2669 85.2823 50.4941 85.3958C50.7213 85.5093 50.9089 85.6768 51.057 85.8984C51.2052 86.1199 51.2932 86.4116 51.3212 86.7734C51.3714 87.4248 51.2123 87.9103 50.8439 88.2299C50.4754 88.5495 49.9873 88.7328 49.3794 88.7798L45.9273 89.0462ZM42.0343 83.0349L43.2309 98.5365L50.7429 97.9566C51.4377 97.903 52.104 97.7642 52.7419 97.5403C53.3943 97.3152 53.9599 97.0022 54.4385 96.6012C54.9317 96.1991 55.3084 95.7041 55.5688 95.1162C55.8281 94.5138 55.9275 93.8217 55.8672 93.0402C55.7923 92.0704 55.4898 91.2638 54.9597 90.6204C54.4429 89.9614 53.6962 89.5313 52.7197 89.33C53.3888 88.9435 53.8769 88.4763 54.184 87.9284C54.5057 87.3794 54.6363 86.7141 54.576 85.9325C54.5201 85.2088 54.3502 84.6104 54.0661 84.1373C53.7965 83.663 53.4335 83.2979 52.9769 83.042C52.5192 82.7715 51.9814 82.5946 51.3634 82.5113C50.7455 82.428 50.0674 82.4148 49.3292 82.4718L42.0343 83.0349ZM46.4351 95.6246L46.1066 91.3693L49.8192 91.0827C50.5574 91.0257 51.1642 91.1536 51.6397 91.4664C52.1141 91.7646 52.382 92.3118 52.4435 93.1079C52.4748 93.5131 52.4281 93.8516 52.3035 94.1233C52.1933 94.3939 52.0286 94.6178 51.8093 94.7948C51.5889 94.9575 51.3295 95.0867 51.0311 95.1825C50.7316 95.2639 50.4154 95.3174 50.0825 95.3431L46.4351 95.6246Z" fill="#282828"/>
<path d="M57.3211 81.8549L58.5177 97.3565L69.4817 96.5102L69.2605 93.6443L61.7051 94.2275L60.7297 81.5918L57.3211 81.8549Z" fill="#282828"/>
<path d="M74.8328 90.0692L76.4128 84.2251L76.4563 84.2217L78.8493 89.7592L74.8328 90.0692ZM74.4244 80.5346L69.759 96.4888L73.1894 96.224L74.1387 92.6781L79.9356 92.2306L81.3744 95.5922L84.9133 95.319L77.9199 80.2648L74.4244 80.5346Z" fill="#282828"/>
<path d="M95.7901 84.1271L99.0902 83.8724C98.9196 82.9828 98.6121 82.2057 98.1677 81.5411C97.7233 80.8766 97.1792 80.3361 96.5355 79.9199C95.9052 79.4881 95.197 79.1787 94.4109 78.9919C93.6393 78.8039 92.8265 78.7429 91.9725 78.8088C90.7856 78.9004 89.7308 79.193 88.8079 79.6865C87.8995 80.1788 87.1481 80.8192 86.5537 81.6077C85.9594 82.3961 85.5271 83.3031 85.2568 84.3286C84.9854 85.3397 84.8944 86.4242 84.9838 87.5821C85.0709 88.7111 85.3262 89.7543 85.7495 90.7117C86.1717 91.6546 86.7364 92.4628 87.4436 93.1362C88.1508 93.8097 88.991 94.3199 89.9642 94.667C90.9508 94.9986 92.0375 95.1185 93.2244 95.0269C94.1797 94.9532 95.0442 94.7409 95.8179 94.3899C96.5916 94.039 97.254 93.5656 97.805 92.9698C98.3559 92.374 98.7822 91.6713 99.0837 90.8618C99.3852 90.0523 99.542 89.1593 99.554 88.1828L96.2539 88.4375C96.2041 89.4897 95.907 90.3571 95.3627 91.0398C94.8329 91.7213 94.047 92.1023 93.0049 92.1828C92.2377 92.242 91.5752 92.1475 91.0173 91.8994C90.4583 91.6368 89.9934 91.2723 89.6225 90.8058C89.2516 90.3394 88.9631 89.8084 88.757 89.2128C88.5642 88.6016 88.4427 87.9703 88.3924 87.319C88.3399 86.6387 88.3614 85.9746 88.457 85.3265C88.567 84.6774 88.7695 84.0939 89.0644 83.5761C89.3582 83.0438 89.7617 82.6122 90.2749 82.2814C90.787 81.9361 91.4266 81.7339 92.1937 81.6747C92.6135 81.6423 93.0171 81.6839 93.4046 81.7996C93.8054 81.8997 94.1673 82.0611 94.4903 82.2836C94.8132 82.5062 95.0889 82.7762 95.3172 83.0934C95.5444 83.3962 95.7021 83.7408 95.7901 84.1271Z" fill="#282828"/>
<path d="M101.146 78.472L102.342 93.9736L105.751 93.7105L105.366 88.717L107.167 86.5905L112.373 93.1994L116.65 92.8692L109.282 84.0029L114.867 77.4128L110.612 77.7413L105.051 84.6353L104.555 78.2089L101.146 78.472Z" fill="#282828"/>
<path d="M122.857 76.7961L124.053 92.2978L127.462 92.0347L126.968 85.6299L133.459 85.1288L133.255 82.4801L126.763 82.9812L126.487 79.3989L133.977 78.8207L133.756 75.9548L122.857 76.7961Z" fill="#282828"/>
<path d="M139.677 82.5522L139.34 78.1883L143.074 77.9001C143.856 77.8397 144.455 77.9682 144.873 78.2854C145.289 78.5881 145.527 79.1158 145.585 79.8685C145.645 80.6501 145.493 81.2296 145.129 81.6072C144.765 81.9847 144.192 82.2037 143.411 82.264L139.677 82.5522ZM135.727 75.8027L136.923 91.3043L140.332 91.0412L139.864 84.9839L143.273 84.7208C144.127 84.6548 144.756 84.7955 145.162 85.1428C145.567 85.4901 145.859 86.0645 146.037 86.8661C146.172 87.4818 146.288 88.1281 146.384 88.805C146.48 89.4819 146.641 90.0592 146.867 90.5368L150.275 90.2737C150.099 90.0689 149.956 89.8178 149.846 89.5206C149.749 89.2077 149.665 88.8793 149.595 88.5353C149.539 88.1901 149.492 87.8517 149.451 87.5199C149.411 87.1881 149.374 86.8997 149.341 86.6548C149.282 86.2662 149.194 85.8799 149.077 85.4958C148.974 85.1106 148.824 84.7655 148.625 84.4605C148.426 84.141 148.18 83.876 147.887 83.6657C147.593 83.4409 147.232 83.2867 146.803 83.2034L146.8 83.1599C147.641 82.7455 148.225 82.1909 148.55 81.496C148.889 80.8001 149.023 79.9962 148.953 79.0843C148.907 78.4909 148.756 77.9492 148.5 77.4594C148.257 76.954 147.918 76.5215 147.483 76.162C147.062 75.8014 146.561 75.5343 145.979 75.3607C145.411 75.1716 144.78 75.1039 144.085 75.1575L135.727 75.8027Z" fill="#282828"/>
<path d="M151.395 74.5933L152.592 90.0949L156 89.8318L154.804 74.3301L151.395 74.5933Z" fill="#282828"/>
<path d="M162.182 86.4717L161.428 76.7017L163.859 76.514C164.699 76.4492 165.41 76.5181 165.994 76.7206C166.591 76.9075 167.08 77.2118 167.462 77.6337C167.844 78.0556 168.132 78.5794 168.326 79.2051C168.533 79.8152 168.667 80.511 168.727 81.2926C168.793 82.1466 168.741 82.8786 168.569 83.4888C168.398 84.099 168.146 84.6062 167.813 85.0105C167.479 85.4003 167.087 85.6927 166.636 85.8876C166.185 86.0826 165.714 86.1991 165.222 86.2371L162.182 86.4717ZM157.798 74.099L158.995 89.6006L165.682 89.0845C166.868 88.9929 167.881 88.7181 168.719 88.2603C169.571 87.7869 170.259 87.1804 170.785 86.441C171.325 85.7004 171.702 84.8413 171.918 83.8637C172.134 82.8861 172.198 81.8328 172.111 80.7038C172.012 79.4156 171.744 78.3079 171.308 77.3805C170.887 76.452 170.334 75.694 169.648 75.1063C168.976 74.5174 168.194 74.0973 167.301 73.846C166.422 73.5934 165.484 73.5057 164.485 73.5828L157.798 74.099Z" fill="#282828"/>
<path d="M178.532 82.0646L180.112 76.2204L180.156 76.2171L182.549 81.7545L178.532 82.0646ZM178.124 72.53L173.459 88.4841L176.889 88.2194L177.838 84.6735L183.635 84.226L185.074 87.5876L188.613 87.3144L181.62 72.2602L178.124 72.53Z" fill="#282828"/>
<path d="M191.889 80.9899L192.355 87.0255L195.764 86.7624L195.304 80.8136L200.32 70.8167L196.521 71.11L193.389 77.5106L189.291 71.668L185.47 71.963L191.889 80.9899Z" fill="#282828"/>
</svg>
