<svg width="242" height="73" viewBox="0 0 242 73" fill="none" xmlns="http://www.w3.org/2000/svg">
<path d="M172.951 43.4246C172.951 46.9664 176.026 48.1771 178.122 48.1771C180.776 48.1771 181.94 47.6852 183.945 45.6218L189.907 48.4914C187.204 52.8421 182.826 54.4983 177.517 54.4983C170.297 54.4983 164.38 49.027 164.38 42.3478C164.38 35.6221 170.297 30.1509 177.517 30.1509C184.785 30.1509 190.327 34.2748 190.327 42.3478C190.327 42.6621 190.327 43.154 190.282 43.4246H172.951V43.4246ZM182.267 39.0301C181.895 36.6087 180.171 35.3079 177.747 35.3079C174.905 35.3079 173.32 36.923 173.181 39.0301H182.267Z" fill="#282828"/>
<path d="M64.4917 54.4999C60.0967 54.4999 56.5108 52.6196 53.7369 48.8537C52.9107 47.7332 52.3457 46.4433 52.1015 45.0878C51.1107 39.5782 52.976 35.2083 57.7032 31.9781C58.873 31.1773 60.2244 30.6417 61.6355 30.4012C66.34 29.6032 70.2723 30.71 73.4352 33.7162C75.9053 36.0938 77.1375 38.9633 77.1375 42.9233V54.4971C77.1375 54.4999 65.9965 54.4999 64.4917 54.4999V54.4999ZM64.4917 36.6759C63.6854 36.6759 62.933 36.8235 62.2346 37.1159C61.5361 37.4111 60.9314 37.8073 60.4203 38.3047C59.9065 38.8021 59.5004 39.3897 59.2023 40.0592C58.9014 40.7315 58.7537 41.4448 58.7537 42.1991C58.7537 42.9534 58.9042 43.6694 59.2023 44.339C59.5033 45.0112 59.9093 45.5961 60.4203 46.0935C60.9314 46.5909 61.539 46.9871 62.2346 47.2823C62.933 47.5774 63.6854 47.7223 64.4917 47.7223C65.2867 47.7223 66.0334 47.5747 66.7319 47.2823C67.4303 46.9899 68.0379 46.5909 68.5546 46.0853C69.0713 45.5824 69.4802 44.9976 69.7811 44.3308C70.0821 43.6639 70.2297 42.9534 70.2297 42.1991C70.2297 41.4448 70.0793 40.7315 69.7811 40.0674C69.4802 39.4006 69.0713 38.8158 68.5546 38.3129C68.0379 37.8101 67.4275 37.4111 66.7319 37.1159C66.0334 36.8235 65.2867 36.6759 64.4917 36.6759Z" fill="#282828"/>
<path d="M100.48 31.9459L97.7768 37.1466C97.7768 37.1466 94.983 35.7118 92.4675 35.7118C90.6504 35.7118 89.9066 36.0261 89.9066 37.1028C89.9066 38.3135 91.5845 38.6715 93.6344 39.3001C96.803 40.2429 100.903 41.9455 100.903 46.6543C100.903 53.4237 94.4748 54.5005 89.5829 54.5005C83.808 54.5005 80.3584 51.4068 80.3584 51.4068L83.7115 45.982C83.7115 45.982 86.9709 48.6275 89.6283 48.6275C90.7924 48.6275 92.1893 48.4935 92.1893 46.9686C92.1893 45.3097 89.5801 45.1758 86.88 43.8285C84.4582 42.6178 82.0364 41.0054 82.0364 37.551C82.0364 32.8422 86.1816 30.1531 92.4704 30.1531C97.0784 30.1531 100.48 31.9459 100.48 31.9459V31.9459Z" fill="#282828"/>
<path d="M132.618 30.8254L113.845 65.4841H104.342L112.587 50.24L101.268 30.8254H110.77L117.431 42.6179L123.112 30.8254H132.618V30.8254Z" fill="#282828"/>
<path d="M140.158 56.2932C141.044 57.6843 143.046 59.253 146.632 59.253C148.914 59.253 152.455 57.9521 152.455 53.8719V52.1693C150.686 54.0523 147.89 54.5005 144.63 54.5005C137.643 54.5005 132.751 49.0757 132.751 42.35C132.751 35.6243 137.643 30.1531 144.63 30.1531C147.799 30.1531 150.36 31.1397 152.316 32.8887H152.455V30.8254H160.7V54.454C160.7 62.1662 154.783 66.1563 146.632 66.1563C141.649 66.1563 135.917 65.0795 133.404 59.4743L140.158 56.2932V56.2932ZM147.1 47.7283C150.314 47.7283 152.642 45.4874 152.642 42.3473C152.642 39.1634 150.175 36.9225 147.1 36.9225C143.98 36.9225 141.51 39.1634 141.51 42.3473C141.51 45.4874 143.747 47.7283 147.1 47.7283Z" fill="#282828"/>
<path d="M31.9631 43.4246C31.9631 46.9664 35.0379 48.1771 37.1333 48.1771C39.7879 48.1771 40.9548 47.6852 42.9564 45.6218L48.9187 48.4914C46.2158 52.8421 41.8378 54.4983 36.5285 54.4983C29.3085 54.4983 23.3916 49.027 23.3916 42.3478C23.3916 35.6221 29.3085 30.1509 36.5285 30.1509C43.7968 30.1509 49.3389 34.2748 49.3389 42.3478C49.3389 42.6621 49.3389 43.154 49.2935 43.4246H31.9631ZM41.2785 39.0301C40.9065 36.6087 39.1832 35.3079 36.7585 35.3079C33.9165 35.3079 32.3322 36.923 32.1931 39.0301H41.2785Z" fill="#282828"/>
<path d="M195.401 22.2598H203.646V30.8247H208.677V36.878H203.646V44.1858C203.646 46.3393 204.205 47.3696 205.508 47.3696C206.579 47.3696 207.558 46.6509 207.558 46.6509L209.608 53.0622C209.608 53.0622 206.953 54.497 203.552 54.497C196.985 54.497 195.401 49.7882 195.401 45.708V36.8753H191.954V30.8219H195.401V22.2598V22.2598Z" fill="#282828"/>
<path d="M203.645 19.9152H168.621V6.84375H198.177C201.198 6.84375 203.645 9.19951 203.645 12.1073V19.9152V19.9152Z" fill="#EFB443"/>
</svg>