<svg width="110" height="22" viewBox="0 0 110 22" fill="none" xmlns="http://www.w3.org/2000/svg">
<path d="M19.7141 9.80118L16.404 6.50476V15.4959L19.7141 12.199C20.0331 11.881 20.2124 11.4499 20.2124 11.0003C20.2124 10.5508 20.0331 10.1196 19.7141 9.80169V9.80118ZM8.32199 4.72724V8.90889H11.8906V4.72724H14.6197L11.3097 1.43032C10.9906 1.11243 10.5577 0.933838 10.1063 0.933838C9.65495 0.933838 9.22207 1.11243 8.90291 1.43032L5.5929 4.72724H8.32199ZM3.80858 15.4957V6.50451L0.498575 9.80118C0.17942 10.1191 0.00012207 10.5503 0.00012207 10.9998C0.00012207 11.4494 0.17942 11.8806 0.498575 12.1985L3.80858 15.4957ZM11.8906 17.2729V13.091H8.32199V17.2729H5.5929L8.90265 20.5696C9.22182 20.8875 9.6547 21.0661 10.1061 21.0661C10.5574 21.0661 10.9903 20.8875 11.3095 20.5696L14.6195 17.2729H11.8906ZM26.3873 16.4188C25.3606 15.7303 24.7011 14.7501 24.4078 13.4772H27.4553C27.8324 14.4579 28.8063 14.9479 30.3774 14.9479C31.1733 14.9479 31.8014 14.8231 32.2621 14.5723C32.7231 14.3223 32.9536 14.0091 32.9536 13.6335C32.9536 13.1953 32.7337 12.8723 32.2941 12.6637C31.8539 12.4553 31.0475 12.2881 29.8746 12.1629C26.5022 11.7873 24.8165 10.4942 24.8165 8.28228C24.8165 7.17708 25.3084 6.27948 26.293 5.59125C27.2773 4.90277 28.555 4.55828 30.1261 4.55828C31.7175 4.55828 33.0266 4.90277 34.053 5.59125C35.0794 6.27973 35.6971 7.2185 35.9066 8.40781H32.6394C32.4928 8.01154 32.1942 7.69862 31.7438 7.46879C31.2932 7.23946 30.7435 7.12455 30.0944 7.12455C29.3195 7.12455 28.7277 7.23416 28.3195 7.45313C27.9112 7.67235 27.7069 7.96961 27.7069 8.34492C27.7069 8.74169 27.916 9.0334 28.3349 9.2213C28.7538 9.40895 29.4978 9.55519 30.5658 9.65924C32.3671 9.82644 33.7074 10.2336 34.5873 10.8799C35.4671 11.5269 35.9068 12.424 35.9068 13.5709C35.9068 14.7397 35.3885 15.6788 34.3515 16.3877C33.3149 17.0969 31.9687 17.4515 30.3145 17.4515C28.7224 17.4515 27.4132 17.1072 26.3873 16.4188ZM40.5194 4.43326V8.84549H40.7075C41.0009 8.51211 41.3881 8.24086 41.8701 8.03225C42.3516 7.82389 42.8334 7.71907 43.3154 7.71907C44.4671 7.71907 45.3941 8.09463 46.096 8.84549C46.7973 9.59686 47.1483 10.5882 47.1483 11.8186V17.2638H44.4777V12.3818C44.4777 11.6936 44.3101 11.1615 43.9754 10.7859C43.64 10.4104 43.1688 10.2227 42.5613 10.2227C41.9751 10.2227 41.4877 10.4316 41.1003 10.8485C40.7126 11.266 40.5191 11.7772 40.5191 12.3818V17.2638H37.88V4.43326H40.5194ZM55.5353 14.2596C56.0166 13.8212 56.2577 13.2582 56.2577 12.5697C56.2577 11.9022 56.0219 11.3388 55.5508 10.8801C55.0794 10.4212 54.5087 10.1914 53.8382 10.1914C53.1678 10.1914 52.5976 10.4212 52.1262 10.8799C51.6551 11.3388 51.4193 11.9022 51.4193 12.5695C51.4193 13.2166 51.6495 13.7697 52.1107 14.2283C52.5709 14.6875 53.126 14.9168 53.7759 14.9168C54.4668 14.9168 55.0531 14.6976 55.5351 14.2596H55.5353ZM51.2304 16.8097C50.4552 16.3824 49.8484 15.7982 49.4083 15.057C48.9686 14.317 48.7485 13.4876 48.7485 12.5692C48.7485 11.6514 48.9686 10.8225 49.4083 10.0815C49.8484 9.34102 50.4552 8.75684 51.2304 8.32926C52.005 7.90193 52.8745 7.68776 53.838 7.68776C54.8013 7.68776 55.6707 7.90193 56.4461 8.32926C57.2205 8.75684 57.8331 9.34102 58.284 10.0815C58.7338 10.8225 58.9595 11.6514 58.9595 12.5692C58.9595 13.4876 58.7338 14.317 58.284 15.057C57.8331 15.7982 57.2205 16.3824 56.4461 16.8097C55.6707 17.2376 54.8013 17.4512 53.838 17.4512C52.8745 17.4512 52.005 17.2376 51.2304 16.8097ZM67.289 14.3064C67.7495 13.8371 67.9799 13.2582 67.9799 12.5697C67.9799 11.8813 67.7495 11.3024 67.289 10.8329C66.8278 10.3636 66.2621 10.1288 65.5921 10.1288C64.9217 10.1288 64.3616 10.3586 63.911 10.8172C63.461 11.2764 63.236 11.8608 63.236 12.5697C63.236 13.2794 63.4609 13.8634 63.9113 14.322C64.3616 14.7812 64.9217 15.0107 65.5921 15.0107C66.2623 15.0107 66.8278 14.7759 67.289 14.3061V14.3064ZM63.2041 7.87566V8.84549H63.393C63.7277 8.49115 64.1418 8.2151 64.6339 8.01659C65.1178 7.82005 65.6353 7.71909 66.1578 7.71933C67.4774 7.71933 68.556 8.17823 69.3938 9.09628C70.2313 10.0143 70.6505 11.1723 70.6505 12.5697C70.6505 13.9677 70.2313 15.1257 69.3938 16.0432C68.556 16.9615 67.4774 17.4202 66.1578 17.4202C65.6756 17.4202 65.1943 17.3209 64.7125 17.1229C64.2308 16.9252 63.8332 16.659 63.5188 16.3248H63.3304V20.7062H60.6913V7.87566H63.2041ZM79.0135 14.3064C79.4742 13.8371 79.7047 13.2582 79.7047 12.5697C79.7047 11.8813 79.4742 11.3024 79.0135 10.8329C78.5525 10.3636 77.987 10.1288 77.3169 10.1288C76.6462 10.1288 76.0863 10.3586 75.6357 10.8172C75.1857 11.2764 74.9608 11.8608 74.9608 12.5697C74.9608 13.2794 75.1857 13.8634 75.636 14.322C76.0863 14.7812 76.6462 15.0107 77.3169 15.0107C77.987 15.0107 78.5525 14.7759 79.0132 14.3061L79.0135 14.3064ZM74.9291 7.87566V8.84549H75.1177C75.4524 8.49115 75.8665 8.2151 76.3587 8.01659C76.8425 7.82005 77.3601 7.71909 77.8826 7.71933C79.2021 7.71933 80.2805 8.17823 81.1185 9.09628C81.9558 10.0143 82.3752 11.1723 82.3752 12.5697C82.3752 13.9677 81.9558 15.1257 81.1185 16.0432C80.2805 16.9615 79.2021 17.4202 77.8826 17.4202C77.4003 17.4202 76.919 17.3209 76.4373 17.1229C75.955 16.9252 75.5579 16.659 75.2435 16.3248H75.0546V20.7062H72.4158V7.87566H74.9286H74.9291ZM84.1496 7.87566H86.7882V17.2638H84.1499L84.1496 7.87566ZM84.1177 3.83874H86.8199V6.27973H84.1179V3.83874H84.1177ZM91.6855 7.87566V8.84549H91.8736C92.1878 8.51211 92.5907 8.24086 93.0831 8.03225C93.5751 7.82389 94.0731 7.71907 94.5756 7.71907C95.7699 7.71907 96.7121 8.08428 97.4033 8.81443C98.0946 9.54508 98.4399 10.5462 98.4399 11.8186V17.2638H95.7699V12.3192C95.7699 10.8796 95.1618 10.1598 93.9473 10.1598C93.361 10.1598 92.858 10.374 92.4393 10.8013C92.0202 11.2292 91.8113 11.735 91.8113 12.3192V17.2636H89.1717V7.87566H91.6855ZM106.78 14.1187C107.23 13.6704 107.455 13.1122 107.455 12.4442C107.455 11.7982 107.225 11.2504 106.764 10.8016C106.303 10.3533 105.748 10.1288 105.099 10.1288C104.429 10.1288 103.863 10.3533 103.402 10.8016C102.942 11.2504 102.711 11.7982 102.711 12.4442C102.711 13.1122 102.942 13.6704 103.402 14.1187C103.863 14.5675 104.429 14.7915 105.099 14.7915C105.769 14.7915 106.329 14.5675 106.78 14.1187ZM106.827 18.3905C107.183 18.3905 107.361 18.2127 107.361 17.8584V15.9493H107.172C106.837 16.2624 106.434 16.5183 105.963 16.716C105.492 16.9145 105.015 17.0135 104.534 17.0135C103.214 17.0135 102.135 16.5706 101.297 15.6833C100.459 14.7968 100.041 13.6861 100.041 12.3508C100.041 11.0362 100.459 9.9363 101.297 9.04906C102.135 8.16257 103.214 7.71933 104.534 7.71933C105.057 7.71933 105.565 7.81833 106.057 8.01659C106.549 8.2151 106.963 8.4914 107.298 8.84574H107.487V7.87566H110V18.3905C110 19.0994 109.79 19.6627 109.371 20.0801C108.952 20.4974 108.387 20.7062 107.675 20.7062H101.203V18.3903H106.827" fill="#E22224"/>
</svg>
