<svg width="177" height="120" viewBox="0 0 177 120" fill="none" xmlns="http://www.w3.org/2000/svg">
<g id="Box_26">
<g id="Group">
<path id="Shape" opacity="0.1" fill-rule="evenodd" clip-rule="evenodd" d="M176.234 75.6648L88.1169 120.001L0 75.6648L88.1169 31.3164L176.234 75.6648Z" fill="#BFBFBF"/>
</g>
<g id="Group_2">
<g id="Group_3">
<path id="Shape_2" fill-rule="evenodd" clip-rule="evenodd" d="M88.1064 19.9688V96.919L47.0674 76.4024V40.4911L88.1064 19.9688Z" stroke="white" stroke-width="2"/>
</g>
<path id="Shape_3" fill-rule="evenodd" clip-rule="evenodd" d="M144.54 22.5341L129.145 40.4868L88.1064 19.9702L103.495 2.01172L144.54 22.5341Z" fill="white" fill-opacity="0.101961" stroke="white" stroke-width="2"/>
<g id="Group_4">
<path id="Shape_4" fill-rule="evenodd" clip-rule="evenodd" d="M31.6958 22.5224L47.0904 40.4751L88.1294 19.9585L72.7405 2L31.6958 22.5224Z" fill="white" fill-opacity="0.101961" stroke="white" stroke-width="2"/>
</g>
<g id="Group_5">
<path id="Shape_5" fill-rule="evenodd" clip-rule="evenodd" d="M129.145 76.3976L88.1064 96.9199V61.0087L129.145 40.4863V76.3976Z" fill="white" fill-opacity="0.101961" stroke="white" stroke-width="2"/>
</g>
<g id="Group_6">
<path id="Shape_6" fill-rule="evenodd" clip-rule="evenodd" d="M47.0617 76.3976L88.1064 96.9199V61.0087L47.0617 40.4863V76.3976Z" fill="white" fill-opacity="0.101961" stroke="white" stroke-width="2"/>
</g>
<path id="Shape_7" fill-rule="evenodd" clip-rule="evenodd" d="M129.145 40.4863L144.54 53.3114L103.495 73.8337L88.1064 61.0087L129.145 40.4863Z" fill="white" fill-opacity="0.2" stroke="white" stroke-width="2"/>
<g id="Group_7">
<path id="Shape_8" fill-rule="evenodd" clip-rule="evenodd" d="M47.0904 40.4746L31.6958 53.2997L72.7405 73.822L88.1294 60.997L47.0904 40.4746Z" fill="white" fill-opacity="0.2" stroke="white" stroke-width="2"/>
</g>
</g>
</g>
</svg>
