<svg width="40" height="41" viewBox="0 0 40 41" fill="none" xmlns="http://www.w3.org/2000/svg">
<path fill-rule="evenodd" clip-rule="evenodd" d="M10.7191 17.7186L21.6367 17.7186L16.938 4.79725C16.7657 4.32352 17.0342 3.93735 17.5385 3.93735L19.6496 3.93735C20.1414 3.93735 20.784 4.28488 21.0568 4.71358L29.3327 17.7186L33.0316 17.7186C35.2339 17.7223 39.0305 18.4675 38.9155 20.9776C38.8006 23.4876 35.326 24.378 33.1242 24.3738L29.2828 24.3596L21.0568 37.2861C20.784 37.7148 20.1414 38.0624 19.6496 38.0624L17.5385 38.0624C17.0342 38.0624 16.7657 37.6762 16.938 37.2025L21.6185 24.3312L10.7094 24.2908L8.09104 26.9091C7.73027 27.2699 7.07359 27.4032 6.59628 27.1947L5.94838 26.9116C5.48361 26.7085 5.27448 26.1452 5.47106 25.6776L7.43781 20.9999L5.22296 16.5702C5.00159 16.1274 5.18466 15.5639 5.64337 15.3346L6.60724 14.8526C7.07281 14.6199 7.73027 14.7298 8.09104 15.0906L10.7191 17.7186Z" fill="#BFBFBF"/>
</svg>
