<svg width="24" height="24" viewBox="0 0 24 24" fill="none" xmlns="http://www.w3.org/2000/svg">
<path d="M21.2003 2.34153C20.6048 1.79413 18.1944 0.0414914 12.8212 0.0174827C12.8212 0.0174827 6.48768 -0.366658 3.40015 2.46638C1.68112 4.18541 1.0761 6.69673 1.01367 9.81787C0.951252 12.9342 0.869622 18.7779 6.50208 20.3625H6.50688L6.50208 22.7778C6.50208 22.7778 6.46847 23.7574 7.11191 23.9542C7.88979 24.1943 8.35076 23.4501 9.09503 22.6482C9.50318 22.2064 10.065 21.563 10.4923 21.0684C14.3434 21.3901 17.306 20.6506 17.6422 20.5402C18.42 20.2857 22.8233 19.7239 23.5387 13.8802C24.2782 7.86835 23.1786 4.06056 21.2003 2.34153ZM21.8533 13.4576C21.2483 18.3362 17.6806 18.6435 17.0227 18.8548C16.7442 18.946 14.1417 19.5942 10.8669 19.3782C10.8669 19.3782 8.42759 22.3216 7.66891 23.0851C7.54887 23.2052 7.40961 23.2532 7.31838 23.2292C7.18873 23.1956 7.15032 23.0419 7.15512 22.8162C7.15512 22.4897 7.17433 18.7971 7.17433 18.7971C7.16953 18.7971 7.16953 18.7971 7.17433 18.7971C2.40618 17.4767 2.68469 12.502 2.73751 9.8995C2.79032 7.29695 3.2801 5.16016 4.73504 3.72444C7.34239 1.36197 12.7252 1.7125 12.7252 1.7125C17.2676 1.73171 19.4428 3.10021 19.947 3.55638C21.6228 4.9969 22.4775 8.43016 21.8533 13.4576Z" fill="white"/>
<path d="M15.0348 9.99123C14.8764 9.99123 14.7419 9.86638 14.7323 9.70312C14.6795 8.67075 14.1945 8.16656 13.2054 8.11374C13.0373 8.10414 12.9076 7.96009 12.9172 7.79202C12.9269 7.62396 13.0709 7.49432 13.239 7.50392C14.545 7.57595 15.2749 8.32502 15.3421 9.66951C15.3517 9.83757 15.2221 9.98162 15.054 9.98643C15.0444 9.99123 15.0396 9.99123 15.0348 9.99123Z" fill="white"/>
<path d="M16.5903 10.5101H16.5855C16.4174 10.5053 16.283 10.366 16.2878 10.198C16.3118 9.16078 16.0141 8.32047 15.3802 7.62902C14.7512 6.93756 13.8821 6.56303 12.7345 6.4814C12.5664 6.46699 12.4416 6.32294 12.456 6.15488C12.4704 5.98682 12.6144 5.86197 12.7825 5.87638C14.079 5.97241 15.1017 6.42378 15.8316 7.22087C16.5663 8.02276 16.9216 9.02633 16.8976 10.2124C16.8928 10.3804 16.7535 10.5101 16.5903 10.5101Z" fill="white"/>
<path d="M18.1855 11.1343C18.0174 11.1343 17.883 10.9998 17.883 10.8317C17.8686 8.97346 17.3356 7.55694 16.2504 6.49575C15.1796 5.44897 13.8207 4.91598 12.2217 4.90157C12.0536 4.90157 11.9192 4.76232 11.9192 4.59426C11.9192 4.4262 12.0584 4.29175 12.2217 4.29175C13.9839 4.30615 15.4821 4.89677 16.6681 6.05879C17.859 7.22082 18.4688 8.82461 18.488 10.8221C18.4928 10.995 18.3583 11.1343 18.1855 11.1343C18.1903 11.1343 18.1903 11.1343 18.1855 11.1343Z" fill="white"/>
<path d="M13.277 13.7511C13.277 13.7511 13.7044 13.7895 13.9349 13.5062L14.3814 12.9444C14.5975 12.6659 15.1209 12.4883 15.6299 12.7716C15.9132 12.93 16.427 13.2469 16.7439 13.4822C17.0848 13.7319 17.7763 14.3081 17.7811 14.3129C18.1124 14.5914 18.1892 14.9996 17.9635 15.4365C17.9635 15.4365 17.9635 15.4413 17.9635 15.4462C17.7331 15.8543 17.4209 16.2384 17.032 16.5938C17.0272 16.5938 17.0272 16.5986 17.0224 16.5986C16.7007 16.8675 16.3838 17.0211 16.0764 17.0547C16.038 17.0643 15.9948 17.0643 15.9372 17.0643C15.8027 17.0643 15.6683 17.0451 15.5338 17.0019L15.5242 16.9875C15.0441 16.8531 14.247 16.5169 12.9217 15.7823C12.0574 15.3069 11.3419 14.8219 10.7321 14.3369C10.4104 14.0825 10.0839 13.7991 9.74773 13.463C9.73813 13.4534 9.72372 13.439 9.71412 13.4294C9.70451 13.4198 9.69011 13.4054 9.68051 13.3958C9.6709 13.3862 9.6565 13.3718 9.64689 13.3622C9.63729 13.3526 9.62288 13.3382 9.61328 13.3286C9.28196 12.9925 8.99385 12.6659 8.73936 12.3442C8.25438 11.7392 7.76941 11.0189 7.29403 10.1546C6.55936 8.82453 6.22324 8.02744 6.08879 7.55206L6.07439 7.54246C6.03117 7.40801 6.01196 7.27356 6.01196 7.13911C6.01196 7.08149 6.01196 7.03828 6.02157 6.99986C6.05998 6.68775 6.21364 6.37563 6.47773 6.05392C6.47773 6.04911 6.48254 6.04911 6.48254 6.04431C6.83787 5.65057 7.22201 5.34326 7.63015 5.11277C7.63015 5.11277 7.63496 5.11277 7.63976 5.11277C8.07192 4.88709 8.48007 4.96392 8.76337 5.29524C8.76337 5.29524 9.34438 5.99149 9.59407 6.33242C9.82936 6.65414 10.1463 7.16312 10.3047 7.44642C10.588 7.95541 10.4104 8.4788 10.1319 8.69488L9.57007 9.14145C9.28676 9.37193 9.32518 9.79929 9.32518 9.79929C9.32518 9.79929 10.1559 12.9588 13.277 13.7511Z" fill="white"/>
</svg>
