<svg width="24" height="24" viewBox="0 0 24 24" fill="none" xmlns="http://www.w3.org/2000/svg">
<path fill-rule="evenodd" clip-rule="evenodd" d="M18.2186 22.5432C19.6564 23.1723 20.1956 21.8542 20.1956 21.8542L24 2.7426C23.97 1.45451 22.2326 2.23335 22.2326 2.23335L0.934237 10.5909C0.934237 10.5909 -0.0842511 10.9504 0.00561555 11.5795C0.0954822 12.2085 0.904282 12.5081 0.904282 12.5081L6.26632 14.3054C6.26632 14.3054 7.88392 19.6076 8.21343 20.6261C8.51299 21.6146 8.78259 21.6445 8.78259 21.6445C9.08214 21.7644 9.35174 21.5547 9.35174 21.5547L12.8266 18.4093L18.2186 22.5432ZM19.1466 6.12716C19.1466 6.12716 19.8955 5.67783 19.8655 6.12716C19.8655 6.12716 19.9854 6.18707 19.5959 6.60645C19.2365 6.96591 10.7591 14.5746 9.62074 15.5931C9.53087 15.653 9.47096 15.7429 9.47096 15.8627L9.14145 18.6785C9.08154 18.9781 8.69212 19.008 8.60225 18.7384L7.19434 14.1253C7.13443 13.9456 7.19434 13.7359 7.37407 13.616L19.1466 6.12716Z" fill="white"/>
</svg>
