<svg width="52" height="52" viewBox="0 0 52 52" fill="none" xmlns="http://www.w3.org/2000/svg">
<path fill-rule="evenodd" clip-rule="evenodd" d="M26 0C11.3534 0 0 10.7287 0 25.22C0 32.8 3.10648 39.3499 8.16546 43.874C8.59014 44.2542 8.8465 44.7866 8.86392 45.3566L9.00552 49.9814C9.05076 51.4567 10.5746 52.4166 11.9245 51.8207L17.0851 49.5426C17.5226 49.3497 18.0128 49.3138 18.4738 49.4407C20.8452 50.0927 23.3692 50.4401 26 50.4401C40.6466 50.4401 52 39.7114 52 25.22C52 10.7287 40.6466 0 26 0Z" fill="url(#paint0_radial)"/>
<path fill-rule="evenodd" clip-rule="evenodd" d="M10.387 32.5954L18.0245 20.4784C19.2394 18.5507 21.8409 18.0707 23.6638 19.4378L29.7383 23.9937C30.2956 24.4118 31.0625 24.4096 31.6175 23.9884L39.8213 17.7621C40.9164 16.9312 42.3457 18.2416 41.6129 19.4044L33.9754 31.5216C32.7604 33.4492 30.1589 33.9292 28.3361 32.562L22.2615 28.006C21.7042 27.5881 20.9373 27.5903 20.3823 28.0115L12.1784 34.2377C11.0834 35.0686 9.65406 33.7582 10.387 32.5954Z" fill="white"/>
<defs>
<radialGradient id="paint0_radial" cx="0" cy="0" r="1" gradientUnits="userSpaceOnUse" gradientTransform="translate(10.0087 51.7219) scale(56.659)">
<stop stop-color="#0099FF"/>
<stop offset="0.609754" stop-color="#A033FF"/>
<stop offset="0.934823" stop-color="#FF5280"/>
<stop offset="1" stop-color="#FF7061"/>
</radialGradient>
</defs>
</svg>
