<svg width="32" height="32" viewBox="0 0 32 32" fill="none" xmlns="http://www.w3.org/2000/svg">
<path d="M30 3H2C1.73478 3 1.48043 3.10536 1.29289 3.29289C1.10536 3.48043 1 3.73478 1 4V24C1 24.2652 1.10536 24.5196 1.29289 24.7071C1.48043 24.8946 1.73478 25 2 25H12.5V27H8V29H24V27H19.5V25H30C30.2652 25 30.5196 24.8946 30.7071 24.7071C30.8946 24.5196 31 24.2652 31 24V4C31 3.73478 30.8946 3.48043 30.7071 3.29289C30.5196 3.10536 30.2652 3 30 3ZM28.75 5.25V18.75H3.25V5.25H28.75ZM15.0081 22.13C14.981 21.9229 15.0195 21.7125 15.1181 21.5284C15.2166 21.3442 15.3704 21.1956 15.5578 21.1033C15.7451 21.011 15.9567 20.9796 16.1628 21.0137C16.3689 21.0478 16.5591 21.1455 16.7068 21.2932C16.8545 21.4409 16.9522 21.6311 16.9863 21.8372C17.0204 22.0433 16.989 22.2549 16.8967 22.4422C16.8044 22.6296 16.6558 22.7834 16.4716 22.8819C16.2875 22.9805 16.0771 23.019 15.87 22.9919C15.6514 22.9633 15.4484 22.8633 15.2926 22.7074C15.1367 22.5516 15.0367 22.3486 15.0081 22.13Z" fill="#696969"/>
</svg>
